<svg width="25" height="24" viewBox="0 0 25 24" fill="none" xmlns="http://www.w3.org/2000/svg">
<g id="Singed">
<path id="Vector" d="M5.6749 16.4137L5.07316 17.1749L5.67489 16.4137L3.45802 14.6611C3.08953 14.3698 2.97347 13.8613 3.17907 13.439L4.41599 10.8981C4.61702 10.4851 4.72055 10.0315 4.7186 9.57226L4.70662 6.74633C4.70463 6.2766 5.02983 5.8688 5.48822 5.76622L8.24597 5.14908C8.69417 5.04878 9.11335 4.84691 9.47122 4.55903L11.6732 2.78772C12.0392 2.49329 12.5608 2.49329 12.9268 2.78772L15.1287 4.55903C15.4866 4.84691 15.9058 5.04878 16.354 5.14908L19.1117 5.76622C19.5701 5.8688 19.8953 6.2766 19.8933 6.74633L19.8813 9.57226C19.8794 10.0315 19.9829 10.4851 20.184 10.8981L21.4209 13.439C21.6265 13.8613 21.5104 14.3698 21.1419 14.6611L18.9251 16.4137C18.5648 16.6985 18.2747 17.0623 18.0772 17.4769L16.8618 20.0282C16.6598 20.4523 16.1899 20.6786 15.7324 20.5721L12.98 19.9316C12.5326 19.8275 12.0674 19.8275 11.62 19.9316L8.86758 20.5721C8.41007 20.6786 7.94013 20.4523 7.73812 20.0282L6.52279 17.4769C6.32527 17.0623 6.03519 16.6985 5.6749 16.4137Z" stroke="#939393" stroke-width="2" stroke-linecap="square"/>
<path id="Vector_2" d="M15.2998 10L11.241 14L9.2998 12.0833" stroke="#1EBD9C" stroke-width="2" stroke-linecap="round"/>
</g>
</svg>
